# Blender v2.90.0 OBJ File: 'cabinet-separate.blend'
# www.blender.org
mtllib cabinet.mtl
o Cube
v 0.500000 2.000000 0.000000
v 0.500000 0.000000 0.000000
v 0.500000 2.000000 0.600000
v 0.500000 0.000000 0.800000
v -0.500000 2.000000 0.000000
v -0.500000 0.000000 0.000000
v -0.500000 2.000000 0.600000
v -0.500000 0.000000 0.800000
v 0.500000 0.800000 0.000000
v -0.500000 0.800000 0.800000
v 0.500000 0.800000 0.800000
v -0.500000 0.800000 0.000000
v -0.469850 1.038057 0.619651
v 0.500000 1.036990 0.000000
v 0.469850 1.038057 0.619651
v -0.500000 1.036990 0.000000
v -0.469850 1.752275 0.341531
v 0.500000 1.807398 0.000000
v 0.469850 1.752275 0.341531
v -0.500000 1.807398 0.000000
v 0.500000 1.036990 1.100000
v 0.500000 0.900000 0.850000
v -0.500000 0.900000 0.850000
v -0.500000 1.036990 1.100000
v 0.500000 1.807398 0.400000
v 0.500000 1.036990 0.700000
v -0.500000 1.036990 0.700000
v -0.500000 1.807398 0.400000
v 0.469850 1.702744 0.214336
v 0.469850 0.988526 0.492455
v -0.469850 0.988526 0.492455
v -0.469850 1.702744 0.214336
v -0.500000 1.903699 0.400000
v 0.500000 1.903699 0.000000
v 0.500000 1.903699 0.400000
v -0.500000 1.903699 0.000000
vt 0.625000 0.500000
vt 0.875000 0.500000
vt 0.875000 0.750000
vt 0.625000 0.750000
vt 0.611500 0.750000
vt 0.625000 1.000000
vt 0.611500 1.000000
vt 0.611500 0.000000
vt 0.625000 0.000000
vt 0.625000 0.250000
vt 0.611500 0.250000
vt 0.125000 0.500000
vt 0.375000 0.500000
vt 0.375000 0.750000
vt 0.125000 0.750000
vt 0.611500 0.500000
vt 0.375000 0.250000
vt 0.475000 0.250000
vt 0.475000 0.500000
vt 0.475000 0.750000
vt 0.375000 0.000000
vt 0.475000 0.000000
vt 0.475000 1.000000
vt 0.375000 1.000000
vt 0.490000 0.250000
vt 0.490000 0.500000
vt 0.490000 0.750000
vt 0.490000 0.000000
vt 0.475000 0.000000
vt 0.490000 0.000000
vt 0.598000 0.250000
vt 0.598000 0.500000
vt 0.598000 0.750000
vt 0.598000 0.000000
vt 0.594061 0.992463
vt 0.493939 0.992463
vt 0.493939 0.992463
vt 0.594061 0.992463
vt 0.475000 0.750000
vt 0.490000 0.750000
vt 0.490000 1.000000
vt 0.475000 1.000000
vt 0.490000 1.000000
vt 0.594062 0.757537
vt 0.493939 0.757538
vt 0.598000 1.000000
vt 0.594062 0.757537
vt 0.493939 0.757538
vn 0.0000 1.0000 0.0000
vn 0.0000 -0.9010 0.4338
vn -1.0000 0.0000 0.0000
vn 0.0000 -1.0000 0.0000
vn 1.0000 0.0000 0.0000
vn 0.0000 0.0000 -1.0000
vn 0.0000 0.0000 1.0000
vn 0.0000 -0.8770 0.4805
vn 0.0000 -0.4472 0.8944
vn -0.9269 0.1361 0.3496
vn 0.0000 0.9999 0.0133
vn 0.9269 0.1361 0.3496
vn 0.0000 -0.7276 0.6860
vn 0.0000 -0.9318 0.3629
vn 0.0000 0.9318 -0.3629
usemtl Material
s off
f 1/1/1 5/2/1 7/3/1 3/4/1
f 35/5/2 3/4/2 7/6/2 33/7/2
f 33/8/3 7/9/3 5/10/3 36/11/3
f 6/12/4 2/13/4 4/14/4 8/15/4
f 34/16/5 1/1/5 3/4/5 35/5/5
f 36/11/6 5/10/6 1/1/6 34/16/6
f 6/17/6 12/18/6 9/19/6 2/13/6
f 2/13/5 9/19/5 11/20/5 4/14/5
f 8/21/3 10/22/3 12/18/3 6/17/3
f 4/14/7 11/20/7 10/23/7 8/24/7
f 12/18/6 16/25/6 14/26/6 9/19/6
f 9/19/5 14/26/5 26/27/5 11/20/5
f 10/22/3 27/28/3 16/25/3 12/18/3
f 27/28/3 10/22/3 23/29/3 24/30/3
f 16/25/6 20/31/6 18/32/6 14/26/6
f 14/26/5 18/32/5 25/33/5 26/27/5
f 27/28/3 28/34/3 20/31/3 16/25/3
f 17/35/5 13/36/5 31/37/5 32/38/5
f 22/39/8 21/40/8 24/41/8 23/42/8
f 26/27/1 27/43/1 24/41/1 21/40/1
f 11/20/5 26/27/5 21/40/5 22/39/5
f 10/23/9 11/20/9 22/39/9 23/42/9
f 19/44/10 15/45/10 26/27/10 25/33/10
f 15/45/11 13/36/11 27/43/11 26/27/11
f 13/36/12 17/35/12 28/46/12 27/43/12
f 17/35/13 19/44/13 25/33/13 28/46/13
f 15/45/3 19/44/3 29/47/3 30/48/3
f 19/44/14 17/35/14 32/38/14 29/47/14
f 13/36/15 15/45/15 30/48/15 31/37/15
f 20/31/6 36/11/6 34/16/6 18/32/6
f 18/32/5 34/16/5 35/5/5 25/33/5
f 28/34/3 33/8/3 36/11/3 20/31/3
f 25/33/7 35/5/7 33/7/7 28/46/7
